<?xml version="1.0" encoding="utf-8"?>
<!-- Generator: Adobe Illustrator 26.0.0, SVG Export Plug-In . SVG Version: 6.00 Build 0)  -->
<svg version="1.1" id="Layer_1" xmlns="http://www.w3.org/2000/svg" xmlns:xlink="http://www.w3.org/1999/xlink" x="0px" y="0px"
	 viewBox="0 0 700 60" style="enable-background:new 0 0 700 60;" xml:space="preserve">
<style type="text/css">
	.st0{fill:#282560;}
	.st1{fill:#079693;}
	.st2{fill:#272560;}
</style>
<path class="st0" d="M18.51,37.99c-0.27-0.07-1.07-0.24-1.47-0.92c-0.43-0.74,0.29-1.26,0.64-1.79
	c6.09-9.11,12.19-18.22,18.28-27.33c1.55-2.31,2-2.39,3.75-0.27c2.16,2.62,4.25,5.3,6.41,7.91c0.74,0.9,0.71,1.53-0.22,2.25
	c-8.52,6.56-17.02,13.13-25.53,19.7C19.96,37.86,19.55,38.21,18.51,37.99"/>
<path class="st1" d="M106.42,4.22c-0.22-0.29-0.91-1.13-2.93-2.29c-0.9-0.52-2.28-1.3-4.29-1.87c-1.67-0.47-3.66-0.68-6.33-0.63
	c-2.87,0.05-5.08,0.37-5.84,0.49c-1.32,0.2-4.82,0.8-9.2,2.38c-3.08,1.11-5.24,2.23-8.73,4.02c-0.62,0.32-2.72,1.39-5.38,2.94
	c-4.4,2.57-8.77,5.51-8.91,5.61c0,0,0,0,0,0c-5.84,3.72-10.66,7.1-14.33,9.78c-6.32,4.61-11.06,8.49-15.01,11.73
	c-3.49,2.86-5.96,4.98-9.46,7.99C11.91,47.89,6.45,52.65,0,58.44c0.02,0.05,0.05,0.12,0.07,0.2c0.02,0.1,0.01,0.19-0.01,0.24
	c1.23,0.01,3.12,0.04,5.45,0.16c2.82,0.14,5.46,0.35,5.45,0.35c-0.88-0.07-1.32-0.11-1.32-0.11c0-0.01,1.51,0.1,4.53,0.33
	C21.61,52.3,28.06,46.3,33,41.81C40,35.43,45.03,30.86,52.14,25.19c1.7-1.36,4.06-3.02,7.78-6.01c2.01-1.62,2.96-2.43,4.91-3.87
	c2.73-2.01,4.91-3.38,5.91-4c2.02-1.24,3.58-2.09,4.78-2.73c3.97-2.14,5.95-3.21,8.42-4.1c1.88-0.68,5.11-1.82,9.41-2.03
	c2.73-0.13,4.58,0.17,6.26,0.46c0.81,0.14,2.29,0.42,3.81,1.22c0,0,1.31,0.69,2.12,1.63c0.33,0.39,0.59,0.82,0.59,0.82
	c0.14,0.24,0.21,0.36,0.28,0.53c0.11,0.28,0.08,0.42,0.21,0.58c0.13,0.16,0.32,0.22,0.47,0.25c0.12-0.03,0.32-0.09,0.44-0.26
	c0.11-0.16,0.09-0.36,0.07-0.76c-0.03-0.39-0.1-0.67-0.12-0.75c-0.04-0.14-0.12-0.44-0.31-0.83C107.14,5.28,106.84,4.77,106.42,4.22
	z"/>
<path class="st0" d="M57.93,46.37c-1.77,0.39-3.18-0.51-4.47-2.2c-2.47-3.25-5.08-6.4-7.76-9.47c-0.97-1.11-0.86-1.58,0.25-2.43
	c2.15-1.65,4.22-3.41,6.2-5.27c1.21-1.14,1.99-0.86,2.96,0.25c2.23,2.57,4.54,5.07,6.79,7.62c0.81,0.92,1.64,1.28,2.94,1.12
	c7.27-0.89,14.57-1.64,21.85-2.44c0.22-0.02,0.45,0,0.67-0.05c1.54-0.34,2.41-1.38,2.27-2.92c-0.14-1.55-1.34-1.84-2.68-1.66
	c-5.41,0.7-10.84,1.34-16.23,2.13c-1.47,0.22-2.42-0.11-3.25-1.32c-1.12-1.62-2.31-3.19-3.55-4.71c-0.98-1.22-0.62-1.63,0.77-1.78
	c4.53-0.51,9.06-1.07,13.59-1.61c2.82-0.33,5.65-0.65,8.47-0.95c0.79-0.08,1.47-0.37,1.96-0.98c0.51-0.64,1.13-1.33,0.73-2.24
	c-0.4-0.92-1.26-0.95-2.12-0.86c-3.35,0.36-6.69,0.72-10.04,1.09c-2.9,0.31-5.8,0.64-8.7,0.92c-0.42,0.04-0.91-0.03-1.3-0.21
	c-0.6-0.27-1.46-0.43-1.55-1.15c-0.08-0.63,0.71-0.91,1.2-1.24c6.02-4.06,12.44-7.32,19.16-9.96c4.13-1.62,8.73,0.23,11.97,4.52
	c2.62,3.46,2.89,8.23,0.43,11.71c-0.9,1.28-1,1.91,0.13,3.16c4.85,5.37,1.97,14.03-5.4,16.57c-2.72,0.94-5.58,1.05-8.4,1.37
	C75.95,44.42,67.1,45.36,57.93,46.37"/>
<path class="st2" d="M485.37,53.99c-1.04-0.61-2.22-0.28-3.32-0.47c-4.46-0.78-8.5-2.4-11.97-5.56c-3.85-3.49-5.96-7.92-6.92-13.14
	c-1.04-5.73-0.27-11.1,2.25-16.24c2.44-4.97,6.24-8.33,11.06-10.45c2.56-1.13,5.24-1.8,8.03-1.87c0.18,0,0.33-0.06,0.38-0.26h4.99
	c1.2,0.52,2.51,0.44,3.75,0.78c4.11,1.15,7.8,3.13,10.91,6.19c-1.72,1.69-3.41,3.34-5.11,4.99c-0.44,0.44-0.89,0.47-1.38,0.04
	c-3.53-3.11-7.7-4.12-12.13-3.75c-5.85,0.47-10.57,3.09-13.14,9.04c-2.64,6.1-1.49,14.09,3.42,18.63c2.33,2.15,5.12,3.17,8.19,3.62
	c3.58,0.52,6.99,0.12,10.3-1.37c1.35-0.6,2.68-1.29,3.74-2.37c0.61-0.61,1.04-0.54,1.54-0.03c1.57,1.62,3.04,3.35,4.77,4.79
	c0.44,0.36,0.41,0.69-0.01,1.05c-3.57,3.09-7.59,5.03-12.15,5.87c-0.98,0.19-2.02-0.05-2.94,0.49H485.37z"/>
<path class="st2" d="M550.68,30.06c0,7.2-0.02,14.4,0.02,21.6c0.01,1.05-0.25,1.34-1.23,1.3c-2.07-0.08-4.14-0.08-6.22,0
	c-1,0.04-1.34-0.19-1.32-1.34c0.06-5.35,0-10.7,0.05-16.04c0.01-1.01-0.25-1.24-1.17-1.24c-6.85,0.05-13.7,0.06-20.56,0
	c-1.1-0.01-1.25,0.38-1.24,1.41c0.05,5.35-0.01,10.69,0.04,16.04c0.01,0.94-0.24,1.18-1.1,1.16c-2.24-0.06-4.49-0.04-6.73-0.01
	c-0.69,0.01-0.94-0.15-0.94-0.93c0.02-14.67,0.02-29.33,0-44c0-0.76,0.21-0.97,0.92-0.95c2.29,0.04,4.57,0.06,6.85-0.01
	c0.88-0.03,0.99,0.34,0.99,1.14c-0.02,5.66,0.02,11.31-0.04,16.96c0,1.06,0.27,1.3,1.23,1.3c6.77-0.04,13.55-0.05,20.32,0
	c1.08,0.01,1.46-0.21,1.44-1.47c-0.08-5.56-0.01-11.13-0.06-16.7c-0.01-1,0.25-1.26,1.18-1.23c2.11,0.08,4.24,0.1,6.35,0
	c1.12-0.06,1.26,0.37,1.25,1.41C550.67,15.66,550.68,22.86,550.68,30.06"/>
<path class="st2" d="M634.44,7.07c5.82,0,11.63,0.03,17.44-0.03c1.16-0.01,1.63,0.21,1.53,1.56c-0.12,1.62-0.09,3.27-0.01,4.9
	c0.06,1.16-0.21,1.58-1.4,1.55c-3.95-0.09-7.9,0.02-11.84-0.06c-1.17-0.02-1.53,0.25-1.52,1.57c0.06,11.61,0.02,23.23,0.06,34.84
	c0,1.15-0.19,1.63-1.4,1.55c-1.95-0.12-3.91-0.11-5.86-0.01c-1.17,0.07-1.52-0.23-1.52-1.56c0.05-11.53,0.03-23.05,0.03-34.58
	c0-2.04,0.24-1.78-1.63-1.79c-3.9-0.01-7.81-0.05-11.7,0.02c-1.05,0.01-1.49-0.19-1.41-1.43c0.12-1.67,0.09-3.36,0.01-5.03
	c-0.06-1.17,0.21-1.57,1.41-1.55C622.56,7.11,628.51,7.07,634.44,7.07"/>
<path class="st2" d="M594.55,26.04c0,5.83,0.03,11.66-0.02,17.49c-0.01,1.12,0.2,1.49,1.35,1.48c7.1-0.06,14.2-0.01,21.29-0.05
	c1.02-0.01,1.4,0.22,1.34,1.36c-0.1,1.72-0.09,3.45,0,5.16c0.06,1.15-0.22,1.49-1.35,1.48c-7.52-0.06-15.04-0.03-22.55-0.03
	c-2.58,0-5.15-0.03-7.73,0.02c-0.79,0.01-1.06-0.21-1.06-1.1c0.02-14.57,0.02-29.15,0-43.73c-0.01-0.93,0.33-1.08,1.09-1.07
	c2.12,0.04,4.24,0.07,6.35-0.01c1.02-0.04,1.34,0.24,1.32,1.37C594.52,14.29,594.55,20.17,594.55,26.04"/>
<path class="st2" d="M252.8,22v17.56c0,4.02-0.03,8.04,0.02,12.06c0.01,0.98-0.15,1.38-1.19,1.34c-2.12-0.1-4.24-0.09-6.36,0
	c-0.99,0.03-1.22-0.28-1.21-1.31c0.03-10.65,0.02-21.3,0.02-31.94c0-3.71,0.07-7.42-0.04-11.13c-0.03-1.34,0.37-1.66,1.52-1.54
	c1.08,0.11,2.2,0.22,3.24-0.02c2.03-0.46,3.08,0.86,4.17,2.22c1.78,2.22,3.53,4.45,5.31,6.68c2.19,2.76,4.37,5.53,6.57,8.28
	c1.64,2.06,3.32,4.08,4.98,6.13c1.35,1.64,2.68,3.28,4.17,5.09v-1.41c0-8.52,0.02-17.05-0.04-25.58c0-1.21,0.33-1.45,1.38-1.41
	c2.16,0.09,4.32,0.06,6.48,0.01c0.7-0.01,0.92,0.19,0.92,0.96c-0.02,14.66-0.02,29.33,0,43.99c0,0.78-0.24,0.97-0.93,0.95
	c-1.24-0.06-2.49-0.06-3.74,0c-0.63,0.03-1.01-0.27-1.36-0.71c-3.15-3.96-6.29-7.92-9.43-11.87c-3.58-4.52-7.18-9.04-10.76-13.57
	C255.34,25.3,254.19,23.79,252.8,22"/>
<path class="st2" d="M290.7,30.01c0-7.25,0.02-14.48-0.02-21.73c-0.01-0.98,0.22-1.24,1.16-1.23c10.39,0.04,20.76,0.04,31.14,0
	c0.96-0.01,1.18,0.29,1.15,1.26c-0.07,1.89-0.08,3.79,0,5.69c0.04,1.01-0.21,1.33-1.22,1.32c-7.38-0.05-14.77,0-22.17-0.06
	c-1.11-0.01-1.36,0.3-1.35,1.46c0.09,3.27,0.08,6.54,0.01,9.8c-0.02,1.16,0.2,1.55,1.39,1.54c6.93-0.07,13.86-0.01,20.8-0.06
	c1.03-0.01,1.35,0.25,1.29,1.37c-0.1,1.76-0.1,3.54,0,5.3c0.07,1.16-0.33,1.34-1.31,1.34c-6.97-0.05-13.95,0-20.93-0.05
	c-0.95-0.01-1.24,0.23-1.23,1.29c0.06,4.82-0.01,9.63,0.05,14.44c0.01,1.08-0.3,1.31-1.24,1.28c-2.12-0.07-4.24-0.07-6.35,0
	c-0.92,0.03-1.18-0.2-1.18-1.22C290.71,44.49,290.7,37.25,290.7,30.01"/>
<path class="st2" d="M226.14,29.95c0-7.2,0.02-14.4-0.02-21.6c-0.01-1.04,0.24-1.34,1.22-1.3c2.16,0.09,4.31,0.05,6.48,0.01
	c0.77-0.02,1.06,0.14,1.06,1.06c-0.03,14.57-0.03,29.15-0.01,43.73c0,0.87-0.21,1.12-1.03,1.1c-2.25-0.06-4.49-0.07-6.73,0
	c-0.88,0.03-1.01-0.33-1.01-1.13C226.14,44.53,226.14,37.24,226.14,29.95"/>
<path class="st2" d="M422.31,30.05c0-7.2,0.02-14.4-0.02-21.6c-0.01-1.05,0.15-1.41,1.25-1.41c10.81,0.05,21.6,0.05,32.41,0
	c1.03,0,1.35,0.25,1.29,1.36c-0.09,1.94-0.1,3.9,0,5.83c0.07,1.16-0.33,1.34-1.32,1.34c-7.85-0.04-15.7,0-23.55-0.05
	c-1.09-0.01-1.4,0.25-1.36,1.44c0.09,2.6,0.11,5.21-0.01,7.81c-0.05,1.24,0.36,1.41,1.4,1.4c7.51-0.05,15.04,0,22.55-0.06
	c1.03-0.01,1.36,0.26,1.3,1.37c-0.1,1.77-0.11,3.54,0,5.3c0.06,1.18-0.34,1.34-1.33,1.33c-7.51-0.04-15.04,0-22.55-0.05
	c-1.11-0.01-1.4,0.27-1.36,1.44c0.09,2.47,0.12,4.96-0.01,7.42c-0.07,1.35,0.38,1.55,1.52,1.54c7.8-0.06,15.61-0.01,23.42-0.06
	c1.05-0.01,1.34,0.27,1.29,1.37c-0.09,2.03-0.06,4.07-0.01,6.1c0.02,0.76-0.13,1.06-0.94,1.06c-11-0.03-22.01-0.03-33.02,0.01
	c-0.93,0.01-0.96-0.41-0.96-1.17C422.32,44.54,422.31,37.3,422.31,30.05"/>
<path class="st2" d="M398.04,7.07c5.98,0,11.96,0.02,17.95-0.02c0.85-0.01,1.15,0.18,1.11,1.14c-0.08,1.94-0.06,3.89,0,5.83
	c0.02,0.84-0.25,1.01-0.99,1.01c-4.16-0.03-8.31,0.02-12.46-0.04c-1.02-0.02-1.31,0.23-1.31,1.36c0.05,11.75,0.01,23.5,0.06,35.25
	c0,1.13-0.29,1.4-1.31,1.35c-2.07-0.09-4.16-0.07-6.23,0c-0.95,0.03-1.25-0.21-1.24-1.28c0.04-11.35,0.02-22.71,0.02-34.06
	c0-2.59,0-2.59-2.46-2.59c-3.74,0-7.48-0.02-11.21,0.01c-0.79,0.01-1.08-0.18-1.05-1.08c0.07-1.94,0.07-3.89,0-5.83
	c-0.03-0.9,0.27-1.08,1.05-1.07C385.99,7.09,392.01,7.07,398.04,7.07"/>
<path class="st2" d="M699.75,27.07c-0.44-5-2.27-9.36-5.52-12.98c-4.23-4.7-9.68-6.7-15.61-6.95c-6.39-0.28-12.79-0.06-19.19-0.08
	c-0.77,0-1.08,0.17-1.08,1.08c0.03,14.58,0.03,29.14,0,43.72c0,0.89,0.28,1.1,1.08,1.09c3.53-0.04,7.05-0.01,10.59-0.02
	c4.37-0.01,8.75,0.15,13.07-0.78c8.13-1.75,14.06-7.3,16.17-15.99c0.31-1.28,0.51-2.6,0.76-3.9v-4.5
	C699.71,27.61,699.77,27.32,699.75,27.07z M688.84,38.74c-2.26,3.53-5.51,5.16-9.38,5.71c-3.76,0.53-7.54,0.11-11.3,0.28
	c-0.92,0.04-1.09-0.32-1.08-1.22c0.03-4.55,0.01-9.1,0.01-13.65c0-4.42,0.03-8.83-0.02-13.26c-0.01-0.99,0.18-1.38,1.21-1.36
	c3.2,0.08,6.4-0.07,9.59,0.05c6.71,0.26,12.03,4.61,13.17,11.92C691.68,31.39,691.09,35.23,688.84,38.74z"/>
<path class="st2" d="M376.71,23.1c-1.24-4.67-3.57-8.58-7.19-11.61c-3.18-2.65-6.76-4.21-10.7-4.99c-1.02-0.2-2.11,0.12-3.07-0.48
	h-3.74c-0.15,0.41-0.49,0.26-0.76,0.26c-1.35-0.02-2.68,0.21-3.99,0.55c-6.79,1.73-11.99,5.69-15.06,12.46
	c-2.38,5.25-3.01,10.79-1.83,16.48c0.77,3.75,2.25,7.19,4.66,10.12c3.24,3.93,7.34,6.2,12.1,7.36c1.38,0.33,2.8,0.23,4.13,0.76h4.99
	c1.42-0.26,2.85-0.46,4.24-0.81c5.23-1.32,9.66-3.93,12.86-8.71c2.4-3.59,3.64-7.52,4.15-11.86
	C377.88,29.33,377.53,26.21,376.71,23.1z M365.3,41.25c-1.73,2.26-4.17,3.56-6.85,4.24c-4.01,1.02-8.01,0.85-11.79-0.89
	c-4.13-1.91-6.59-5.47-7.61-10.13c-0.71-3.24-0.7-6.42,0.21-9.65c1.55-5.45,4.89-8.85,10.01-10.32c1.47-0.42,2.97-0.67,3.94-0.58
	c5.04,0.03,9,1.41,12.1,5.02c1.87,2.17,2.9,4.8,3.38,7.63C369.62,31.99,368.6,36.99,365.3,41.25z"/>
<path class="st2" d="M163.44,51.82c-2.58-5.58-5.09-11.18-7.64-16.77c-3.63-7.95-7.29-15.88-10.95-23.82
	c-0.49-1.07-1.07-2.09-1.44-3.19c-0.25-0.77-0.6-1-1.32-0.99c-2.54,0.04-5.07,0.05-7.59-0.01c-0.84-0.02-1.25,0.28-1.6,1.07
	c-2.48,5.53-4.98,11.04-7.5,16.54c-2.35,5.12-4.73,10.21-7.09,15.32c-0.39,0.82-0.73,1.67-1.11,2.49c-1.58,3.41-3.16,6.8-4.74,10.2
	v0.26c2.74,0,5.49-0.03,8.23,0.03c0.89,0.01,1.41-0.21,1.8-1.16c0.92-2.25,2-4.41,2.96-6.64c0.32-0.76,0.76-1,1.52-0.99
	c7.48,0.02,14.95,0.03,22.43,0c0.73,0,1.13,0.26,1.43,0.94c1,2.3,2.05,4.58,3.05,6.88c0.29,0.67,0.66,0.98,1.42,0.97
	c2.48-0.06,4.99-0.06,7.47-0.01C163.72,52.97,163.88,52.79,163.44,51.82z M138.39,36.23c-2.52,0-5.07-0.06-7.6,0.03
	c-1.24,0.05-1.12-0.5-0.76-1.34c0.65-1.51,1.37-2.99,2.02-4.49c1.9-4.4,3.91-8.76,5.89-13.13c0.05-0.12,0.16-0.19,0.32-0.37
	c2.85,6.44,5.67,12.8,8.55,19.29H138.39z"/>
<path class="st2" d="M206.31,38.21c-0.67-4.32-3.08-7.4-6.97-9.02c0.15-0.42,0.54-0.44,0.8-0.62c1.5-1.02,2.89-2.13,3.75-3.86
	c1.26-2.53,1.31-5.18,0.65-7.89c-0.59-2.33-1.65-4.39-3.42-5.95c-3.05-2.7-6.76-3.65-10.54-3.75c-7.6-0.2-15.2-0.04-22.8-0.07
	c-0.74,0-0.99,0.19-0.99,1.03c0.02,14.61,0.02,29.23,0,43.85c0,0.71,0.14,1.03,0.89,1.01c8.9-0.27,17.83,0.56,26.7-0.55
	c3.73-0.47,7.11-1.81,9.61-4.96C206.11,44.77,206.83,41.54,206.31,38.21z M175.51,16.17c-0.01-0.8,0.12-1.17,1.01-1.16
	c4.6,0.04,9.2-0.05,13.81,0.04c2.06,0.04,3.9,1,5.07,2.81c2.02,3.12,0.29,6.6-3.48,7.24c-0.46,0.07-0.89,0.25-1.34,0.25
	c-2.41,0.02-4.8,0.01-7.21,0.01c-2.25,0-4.48-0.03-6.72,0.02c-0.83,0.02-1.17-0.16-1.15-1.14
	C175.57,21.55,175.55,18.85,175.51,16.17z M194.56,43.84c-1.77,0.82-3.68,1.14-5.63,1.14c-4.08-0.01-8.15-0.03-12.22,0.01
	c-0.89,0.01-1.23-0.17-1.21-1.22c0.06-3.18,0.07-6.36,0-9.54c-0.02-1.06,0.34-1.23,1.22-1.21c2.16,0.06,4.33,0.02,6.48,0.02
	c2.07,0,4.15-0.03,6.23,0c2.33,0.04,4.44,0.83,6.3,2.3c1.44,1.15,2.19,2.77,1.95,4.71C197.44,42.01,196.11,43.12,194.56,43.84z"/>
</svg>
