<?xml version="1.0" encoding="utf-8"?>
<!-- Generator: Adobe Illustrator 26.0.0, SVG Export Plug-In . SVG Version: 6.00 Build 0)  -->
<svg version="1.1" id="Layer_1" xmlns="http://www.w3.org/2000/svg" xmlns:xlink="http://www.w3.org/1999/xlink" x="0px" y="0px"
	 viewBox="0 0 841.89 595.28" style="enable-background:new 0 0 841.89 595.28;" xml:space="preserve">
<style type="text/css">
	.st0{fill:#282560;}
	.st1{fill:#0C9895;}
	.st2{fill:#41A9DD;}
</style>
<path class="st0" d="M164.32,356.31c-1.94-0.54-7.73-1.74-10.57-6.71c-3.1-5.41,2.08-9.15,4.65-13.03
	c43.91-66.38,87.97-132.66,131.89-199.02c11.15-16.85,14.4-17.39,27.03-2c15.62,19.05,30.66,38.59,46.28,57.63
	c5.36,6.53,5.11,11.17-1.61,16.38c-61.45,47.74-122.8,95.63-184.17,143.47C174.79,355.4,171.84,357.92,164.32,356.31"/>
<path class="st1" d="M798.55,110.43c-1.59-2.08-6.53-8.23-21.11-16.68c-6.5-3.77-16.46-9.46-30.98-13.62
	c-12.04-3.45-26.38-4.95-45.7-4.6c-20.73,0.38-36.66,2.71-42.13,3.55c-9.54,1.48-34.75,5.8-66.38,17.36
	c-22.2,8.11-37.78,16.21-62.98,29.3c-4.5,2.34-19.63,10.16-38.81,21.45c-31.75,18.69-63.26,40.11-64.31,40.83
	c0,0-0.03,0.02-0.03,0.02c-42.11,27.1-76.91,51.72-103.4,71.23c-45.61,33.61-79.8,61.83-108.28,85.4
	c-25.14,20.82-42.98,36.27-68.25,58.18c-29.46,25.55-68.89,60.2-115.39,102.42c0.17,0.33,0.39,0.84,0.49,1.49
	c0.12,0.75,0.04,1.38-0.04,1.77c8.88,0.07,22.54,0.31,39.31,1.14c20.34,1.01,39.37,2.56,39.31,2.55c-6.34-0.51-9.51-0.78-9.51-0.8
	c0-0.04,10.89,0.75,32.65,2.39c53.67-53.25,100.22-97,135.83-129.7c50.55-46.43,86.8-79.72,138.13-121.02
	c12.28-9.88,29.29-21.98,56.14-43.77c14.52-11.79,21.34-17.7,35.44-28.17c19.68-14.61,35.39-24.6,42.64-29.11
	c14.56-9.06,25.82-15.21,34.47-19.91c28.63-15.58,42.95-23.37,60.77-29.87c13.6-4.97,36.87-13.27,67.91-14.81
	c19.67-0.98,33.02,1.23,45.19,3.32c5.88,1.01,16.49,3.07,27.48,8.86c0,0,9.49,4.99,15.31,11.89c2.37,2.81,4.24,5.98,4.24,5.98
	c1.02,1.73,1.53,2.6,2,3.89c0.76,2.06,0.58,3.09,1.48,4.22c0.92,1.16,2.3,1.61,3.36,1.81c0.86-0.19,2.3-0.65,3.18-1.92
	c0.82-1.18,0.68-2.63,0.47-5.51c-0.21-2.82-0.73-4.9-0.87-5.47c-0.26-0.99-0.89-3.22-2.25-6.01
	C803.75,118.13,801.57,114.39,798.55,110.43z"/>
<path class="st0" d="M448.71,417.36c-12.8,2.81-22.97-3.7-32.25-16.01c-17.83-23.68-36.64-46.63-56.01-69
	c-6.99-8.07-6.22-11.51,1.77-17.71c15.5-12.01,30.48-24.85,44.74-38.37c8.74-8.29,14.38-6.28,21.34,1.83
	c16.08,18.73,32.75,36.91,48.98,55.49c5.83,6.68,11.81,9.33,21.23,8.16c52.48-6.46,105.08-11.93,157.64-17.74
	c1.61-0.18,3.28-0.02,4.84-0.36c11.13-2.44,17.36-10.05,16.37-21.23c-0.99-11.26-9.68-13.39-19.36-12.12
	c-39.05,5.09-78.17,9.72-117.12,15.55c-10.59,1.58-17.43-0.79-23.47-9.6c-8.07-11.78-16.69-23.2-25.61-34.32
	c-7.1-8.87-4.49-11.85,5.55-12.99c32.72-3.69,65.38-7.83,98.07-11.7c20.37-2.42,40.75-4.75,61.14-6.91
	c5.7-0.61,10.57-2.68,14.14-7.14c3.71-4.67,8.16-9.71,5.28-16.31c-2.92-6.68-9.1-6.94-15.33-6.26c-24.14,2.66-48.29,5.27-72.44,7.9
	c-20.92,2.28-41.83,4.66-62.77,6.73c-3.06,0.3-6.55-0.24-9.35-1.52c-4.3-1.96-10.56-3.16-11.2-8.39c-0.55-4.56,5.1-6.6,8.64-9.01
	c43.4-29.55,89.75-53.33,138.22-72.55c29.78-11.8,62.98,1.68,86.35,32.89c18.88,25.2,20.82,59.95,3.08,85.3
	c-6.51,9.3-7.23,13.9,0.95,23.03c35.01,39.12,14.19,102.21-38.99,120.64c-19.66,6.81-40.29,7.63-60.59,10.01
	C578.74,403.16,514.88,410,448.71,417.36"/>
<g>
	<path class="st2" d="M152.1,154.13c0-0.36,0.24-0.61,0.58-0.61c0.34,0,0.57,0.25,0.57,0.61c0,0.35-0.22,0.61-0.58,0.61
		C152.33,154.74,152.1,154.48,152.1,154.13z"/>
</g>
</svg>
